<svg>
  <symbol id="add-to-cart" viewBox="0 0 486.77 486.77" enableBackground="new 0 0 486.77 486.77">
    <path d="M482.482 175.267c-3.43-4.96-9.055-7.939-15.083-7.939h-45.714c4.887-14.165 3.873-29.893-3.29-43.606-7.731-14.824-21.517-25.186-37.6-28.577V55.411c0-14.347-5.61-28.893-17.217-39.962C353.628 5.934 340.208 0 325.384 0h-34.085c-14.821 0-28.244 5.934-38.195 15.448-10.663 10.165-17.215 24.189-17.215 39.962v39.733c-16.083 3.392-29.868 13.753-37.601 28.577-7.163 13.714-8.176 29.441-3.287 43.606h-45.454l-41.245-45.817a24.394 24.394 0 0 0-18.136-8.082l-64.688-.008c-13.477 0-24.402 10.926-24.402 24.402 0 13.477 10.925 24.396 24.402 24.396h53.819l33.275 36.983 70.512 183.346a18.29 18.29 0 0 0 17.081 11.733h194.012c7.58 0 14.371-4.658 17.081-11.733l73.205-190.343a18.28 18.28 0 0 0-1.981-16.936zm-245.341-31.264c2.013-3.834 5.942-6.219 10.253-6.219h32.325V55.411c0-6.385 5.197-11.568 11.565-11.568H325.4c6.371 0 11.568 5.183 11.568 11.568v82.372H369.293c4.31 0 8.24 2.385 10.252 6.219a11.519 11.519 0 0 1-.776 11.971l-60.926 87.348a11.603 11.603 0 0 1-9.491 4.944h-.017c-3.77 0-7.319-1.846-9.49-4.944l-60.925-87.348a11.515 11.515 0 0 1-.779-11.97zM228.577 413.565c-20.219 0-36.603 16.383-36.603 36.602 0 20.211 16.384 36.604 36.603 36.604 20.21 0 36.596-16.393 36.596-36.604-.001-20.219-16.386-36.602-36.596-36.602zM363.081 413.565c-20.212 0-36.603 16.383-36.603 36.602 0 20.211 16.391 36.604 36.603 36.604 20.217 0 36.594-16.393 36.594-36.604 0-20.219-16.377-36.602-36.594-36.602z"/>
  </symbol>

  <symbol id="has-stock" viewBox="0 0 369.946 369.946" enableBackground="new 0 0 369.946 369.946">
    <path style="fill:#007500" d="M184.973 0C82.981 0 0 82.975 0 184.973s82.981 184.973 184.973 184.973 184.973-82.975 184.973-184.973S286.965 0 184.973 0zm-34.196 263.873-66.125-66.125 8.437-8.437 57.688 57.688 125.561-125.561 8.437 8.437-133.998 133.998z"/>
  </symbol>

  <symbol id="home" viewBox="0 0 122.88 112.07" enableBackground="new 0 0 122.88 112.07">
    <path d="M61.44 0 0 60.18l14.99 7.87L61.04 19.7l46.85 48.36 14.99-7.87L61.44 0zM18.26 69.63 61.5 26.38l43.11 43.25v42.43H73.12V82.09H49.49v29.97H18.26V69.63z" style="fill-rule:evenodd;clip-rule:evenodd"/>
  </symbol>

  <symbol id="close" viewBox="0 0 11 11">
    <g><g><g><g><path d="M6.071 5.89l4.19-4.19a.538.538 0 0 0-.76-.76l-4.19 4.19L1.12.94a.538.538 0 1 0-.761.76l4.19 4.19-4.19 4.191a.538.538 0 1 0 .76.76l4.19-4.19 4.19 4.19a.538.538 0 0 0 .761-.76z"/></g></g></g></g>
  </symbol>

  <symbol id="delete" viewBox="0 0 16 18">
    <path d="M1 4.20001H2.6H15.4" fill="none" strokeLinecap="round" strokeLinejoin="round"/>
    <path d="M5.00156 4.2V2.6C5.00156 2.17565 5.17013 1.76869 5.47019 1.46863C5.77025 1.16857 6.17722 1 6.60156 1H9.80156C10.2259 1 10.6329 1.16857 10.9329 1.46863C11.233 1.76869 11.4016 2.17565 11.4016 2.6V4.2M13.8016 4.2V15.4C13.8016 15.8243 13.633 16.2313 13.3329 16.5314C13.0329 16.8314 12.6259 17 12.2016 17H4.20156C3.77722 17 3.37025 16.8314 3.07019 16.5314C2.77013 16.2313 2.60156 15.8243 2.60156 15.4V4.2H13.8016Z" fill="none" strokeLinecap="round" strokeLinejoin="round"/>
    <path d="M6.60156 8.20001V13" fill="none" strokeLinecap="round" strokeLinejoin="round"/>
    <path d="M9.80078 8.20001V13" fill="none" strokeLinecap="round" strokeLinejoin="round"/>
  </symbol>

   <symbol id="arrow-left" viewBox="0 0 7 12" fill="none">
    <path d="m6 11l-5-5 5-5" strokeWidth="1.2" strokeLinecap="round" strokeLinejoin="round"/>
  </symbol>

   <symbol id="arrow-right" viewBox="0 0 7 12" fill="none">
    <path d="M1 11L6 6L1 1" strokeWidth="1.2" strokeLinecap="round" strokeLinejoin="round"/>
  </symbol>

  <symbol id="user" viewBox="0 0 30 31" enableBackground="new 0 0 30 31">
    <g id="circle" transform="translate(0.08 0.695)">
    	<g>
    		<defs>
    			<ellipse id="SVGID_1_" cx="14.9" cy="14.8" rx="15" ry="15.5"/>
    		</defs>
    		<clipPath id="SVGID_2_">
    			<use xlink:href="#SVGID_1_"  style="overflow:visible;"/>
    		</clipPath>
    		<g id="Mask_Group_2" clipPath="url(#SVGID_2_)">
    			<g id="user" transform="translate(-0.08 -0.195)">
    				<path id="Path_1038" fill="#C9850F" d="M15,0L5.6,15L15,30c8.3,0,15-6.7,15-15S23.3,0,15,0z"/>
    				<path id="Path_1039" fill="#FFB026" d="M0,15c0,8.3,6.7,15,15,15V0C6.7,0,0,6.7,0,15z"/>
    				<path id="Path_1040" fill="#D6D6D6" d="M15,3.5l-3.9,6.2l3.9,6.2c3.4-0.1,6.1-2.9,6-6.3C20.9,6.2,18.3,3.6,15,3.5L15,3.5z"/>
    				<path id="Path_1041" fill="#FFFFFF" d="M8.8,9.7c0,3.4,2.8,6.2,6.2,6.2h0V3.5C11.6,3.5,8.8,6.3,8.8,9.7L8.8,9.7z"/>
    				<path id="Path_1042" fill="#D6D6D6" d="M24.9,19.7c-1.2-1.3-2.8-2.1-4.6-2.1H15L11.5,22l3.5,4.5c4.1,0,7.9-2.2,10-5.8l0.3-0.5
    					L24.9,19.7z"/>
    				<path id="Path_1043" fill="#FFFFFF" d="M9.7,17.6c-1.8,0-3.4,0.8-4.6,2.1l-0.4,0.5L5,20.7c2,3.6,5.9,5.8,10,5.8v-8.9H9.7z"/>
    			</g>
    		</g>
    	</g>
    </g>
  </symbol>
</svg>
